PathFileType	4	(X/Y/Z)	./resultDataOpenSim/trcMotMarkerGrf/sub09/qtm-04-02.trc
DataRate	CameraRate	NumFrames	NumMarkers	Units	OrigDataRate	OrigDataStartFrame	OrigNumFrames
250.000000	250.000000	7	24	m	250.000000	185	493
Frame#	Time	L.Toe.Tip			R.Toe.Tip			L.Ankle.Lat			R.Ankle.Lat			L.Ankle.Med			R.Ankle.Med			L.Heel			R.Heel			L.Knee.Lat			R.Knee.Lat			L.Knee.Med			R.Knee.Med			L.Thigh.Upper			R.Thigh.Upper			L.ASIS			R.ASIS			V.Sacral			L.Acromium			R.Acromium			C7			L.Elbow			R.Elbow			L.Wrist.Lat			R.Wrist.Lat
		X1	Y1	Z1	X2	Y2	Z2	X3	Y3	Z3	X4	Y4	Z4	X5	Y5	Z5	X6	Y6	Z6	X7	Y7	Z7	X8	Y8	Z8	X9	Y9	Z9	X10	Y10	Z10	X11	Y11	Z11	X12	Y12	Z12	X13	Y13	Z13	X14	Y14	Z14	X15	Y15	Z15	X16	Y16	Z16	X17	Y17	Z17	X18	Y18	Z18	X19	Y19	Z19	X20	Y20	Z20	X21	Y21	Z21	X22	Y22	Z22	X23	Y23	Z23	X24	Y24	Z24

185	0.736	0.17490186	-0.033292254	0.017458461	-0.58863829	0.059770283	0.10711528	0.030150017	-0.0035447518	-0.03107807	-0.63966736	0.19904765	0.15285715	0.044402099	0.016222925	0.065178715	-0.59228158	0.20101798	0.066363492	-0.045144199	-0.036717063	0.0098851677	-0.68670114	0.24111899	0.094010836	0.078641935	0.40458525	-0.089602711	-0.23133197	0.38787213	0.22225757	0.079424185	0.40902941	0.035151912	-0.22495589	0.36110186	0.096809665	-0.1072904	0.78473255	-0.13940499	-0.17219578	0.77617665	0.23105182	-0.041954473	0.87172338	-0.068758375	-0.057994984	0.85762244	0.17349197	-0.21715962	0.91855105	0.039604991	-0.074559369	1.3124865	-0.12416088	-0.095054009	1.3293796	0.20800213	-0.15130578	1.37236	0.039029902	-0.24211638	0.99256163	-0.17218258	-0.24090218	0.98321275	0.29072286	-0.19345958	0.74680362	-0.24422037	-0.012456713	0.81926273	0.28493452
186	0.74	0.17500298	-0.0334113	0.017440818	-0.58340068	0.061878987	0.10818173	0.030497498	-0.0037420492	-0.031100831	-0.62891282	0.20385389	0.15384067	0.04466278	0.016122761	0.065157378	-0.58142094	0.20450946	0.067588349	-0.045094941	-0.03660303	0.0097900122	-0.67437183	0.24740821	0.095162884	0.081976768	0.40350589	-0.089299963	-0.2187859	0.38641696	0.22256647	0.082829301	0.40771276	0.034444518	-0.21231984	0.35965967	0.097287914	-0.10068211	0.78440095	-0.13998157	-0.16394106	0.77590351	0.22921516	-0.035583844	0.87161389	-0.069407624	-0.051769406	0.85751491	0.17279599	-0.21057577	0.9189466	0.0392177	-0.06738557	1.3125603	-0.12439523	-0.087837689	1.3292945	0.20792305	-0.14405455	1.372643	0.038791127	-0.23387673	0.99190103	-0.1722065	-0.23535766	0.98423975	0.29137534	-0.18369229	0.7461712	-0.24375701	-0.0096733949	0.81624728	0.28534358
187	0.744	0.17506642	-0.033502788	0.017420714	-0.57748452	0.064067314	0.10942573	0.030772794	-0.0039368351	-0.031144634	-0.6179126	0.20837769	0.15475753	0.044858016	0.016068169	0.065090454	-0.57029211	0.20797039	0.068736219	-0.045068524	-0.036500583	0.0096703397	-0.66178785	0.25358577	0.096401868	0.085450102	0.40266538	-0.089322704	-0.20631486	0.3851538	0.22281872	0.085966236	0.40679835	0.03391545	-0.19968124	0.35856148	0.097640811	-0.094041094	0.78424546	-0.14054862	-0.15623911	0.7757517	0.22781934	-0.029243972	0.87159381	-0.069988009	-0.0456651	0.85752567	0.17215287	-0.20403297	0.91957626	0.038803984	-0.060210082	1.3127179	-0.12460132	-0.080810692	1.3293369	0.20786184	-0.13686332	1.3730467	0.038544357	-0.22570401	0.99133562	-0.17227569	-0.22972001	0.98527087	0.29201711	-0.17385599	0.74561294	-0.24325154	-0.0069723225	0.81333754	0.28579611
188	0.748	0.17509334	-0.033580254	0.017407868	-0.57072939	0.066413188	0.11086366	0.030904932	-0.0041084842	-0.031161068	-0.60667454	0.21266041	0.15561468	0.044995651	0.016038966	0.065018149	-0.55888997	0.21140794	0.069755924	-0.045066025	-0.036410076	0.0095705801	-0.64901346	0.25965294	0.097698602	0.089050386	0.40201374	-0.08962634	-0.19392657	0.38412974	0.2230281	0.088901905	0.40624965	0.03355688	-0.18705618	0.3577875	0.09788709	-0.087407372	0.78434796	-0.14109098	-0.14938157	0.77556369	0.22716498	-0.022908037	0.87169787	-0.070476862	-0.039629594	0.85765807	0.17158191	-0.19747207	0.92037406	0.038361302	-0.0530331	1.3129706	-0.12477172	-0.073953547	1.3295283	0.20781415	-0.12971788	1.3735499	0.038299635	-0.21759954	0.99086064	-0.17252906	-0.22390479	0.9863034	0.29255857	-0.16393718	0.74514921	-0.24269756	-0.0043342341	0.81052902	0.28629341
189	0.752	0.17509657	-0.033649726	0.017398258	-0.56299215	0.069013071	0.11245255	0.030866412	-0.0042344715	-0.031135722	-0.59521065	0.21678267	0.1563999	0.045103492	0.016020318	0.064964323	-0.54721976	0.21486871	0.070624273	-0.04507856	-0.036323108	0.0095133147	-0.6360963	0.26551236	0.098970749	0.092688063	0.40151956	-0.090150038	-0.1815142	0.38335683	0.22316063	0.091590144	0.40595253	0.033287217	-0.17445397	0.3573345	0.098034094	-0.080820157	0.78477383	-0.14159864	-0.14319627	0.77537725	0.22706735	-0.016558517	0.87195694	-0.070851818	-0.033644554	0.85792177	0.17108465	-0.19093583	0.92125481	0.037883805	-0.045859379	1.3133324	-0.12489947	-0.067241788	1.329885	0.2077743	-0.12262166	1.3741548	0.03806396	-0.20954182	0.99047468	-0.17296081	-0.21792012	0.98735262	0.29296813	-0.15390876	0.74481303	-0.24208478	-0.0017584539	0.80784189	0.28683989
190	0.756	0.17509547	-0.033710304	0.017383142	-0.5541925	0.071925879	0.11410295	0.030713056	-0.0043054876	-0.03108617	-0.58350686	0.22084129	0.15709402	0.045212339	0.016006658	0.064936735	-0.53531157	0.21841933	0.071351453	-0.045093534	-0.036227293	0.0095012948	-0.62313208	0.27103113	0.10012639	0.096316513	0.40119745	-0.090950228	-0.16897633	0.38283181	0.22318608	0.094006449	0.40577802	0.033030474	-0.16186477	0.35720414	0.09807858	-0.074304634	0.78554384	-0.14206982	-0.13729831	0.77530369	0.22714688	-0.010201686	0.87238689	-0.071109217	-0.027702079	0.85832641	0.17065701	-0.1845575	0.92217433	0.037379467	-0.038692202	1.3138142	-0.12497696	-0.060661677	1.3304109	0.20773202	-0.11559092	1.3748815	0.037845375	-0.20150565	0.99019036	-0.17343927	-0.21180201	0.98845256	0.29325919	-0.14374404	0.74463599	-0.24140395	0.00074586495	0.80530267	0.28743881
191	0.76	0.17510491	-0.03375974	0.017356078	-0.54428196	0.075148384	0.1157573	0.030561266	-0.0043326135	-0.031040995	-0.57152129	0.22491287	0.15769218	0.045339627	0.015996962	0.064931552	-0.52321835	0.22210655	0.071949648	-0.045102268	-0.036112992	0.0095254679	-0.61023742	0.27607992	0.10107075	0.099895182	0.40104791	-0.092034369	-0.1562607	0.38255687	0.22308809	0.096195609	0.40562249	0.032751759	-0.14926044	0.35738494	0.098006009	-0.067881481	0.78662717	-0.14250444	-0.13140265	0.77540859	0.22713893	-0.0038629459	0.87298163	-0.07126828	-0.021778822	0.85887542	0.17030373	-0.17839195	0.92312112	0.036794961	-0.03152635	1.314417	-0.12500155	-0.054195884	1.331094	0.20768237	-0.10864411	1.3757511	0.037648151	-0.19348264	0.99003047	-0.17384311	-0.20562193	0.98964526	0.29345924	-0.13342544	0.74463637	-0.24064848	0.0031575198	0.80292178	0.28808359
